<svg xmlns="http://www.w3.org/2000/svg" xmlns:xlink="http://www.w3.org/1999/xlink" viewBox="0 0 545.1 91.53"><defs><style>.cls-1{isolation:isolate;}.cls-2{fill:#45b774;}.cls-3,.cls-4{fill:#fff;}.cls-4{opacity:0.35;}.cls-5{fill:url(#linear-gradient);}.cls-6{opacity:0.8;fill:url(#New_Gradient_Swatch_2);}.cls-7{opacity:0.6;mix-blend-mode:multiply;}</style><linearGradient id="linear-gradient" x1="46.47" y1="3.77" x2="72.68" y2="63.24" gradientUnits="userSpaceOnUse"><stop offset="0" stop-color="#51cf55"/><stop offset="0.07" stop-color="#49c95b"/><stop offset="0.57" stop-color="#149e83"/><stop offset="0.82" stop-color="#008d92"/></linearGradient><linearGradient id="New_Gradient_Swatch_2" x1="35.53" y1="47.37" x2="101.49" y2="47.37" gradientUnits="userSpaceOnUse"><stop offset="0" stop-color="#45b774"/><stop offset="1" stop-color="#dbe6e6"/></linearGradient></defs><title>FreeAgentCRM_LogoHorzRev</title><g class="cls-1"><g id="Layer_2" data-name="Layer 2"><g id="Logo_Horizontal_Dark" data-name="Logo Horizontal Dark"><g id="LogoType"><g id="Leads-Rolodex-1"><g id="FreeAgent_CRM_2Color_Reverse.svg" data-name="FreeAgent CRM 2Color Reverse.svg"><g id="Group"><path id="Shape" class="cls-2" d="M137.11,74.73V46.8H132.4V38.51h4.71V37.08c0-4.38,1.32-9.15,4.43-12.1a14.47,14.47,0,0,1,9.89-3.62,23.08,23.08,0,0,1,5.84.76l-.48,8.67a12.25,12.25,0,0,0-3.57-.47c-3.68,0-5.18,2.85-5.18,6.38v1.81h7.15V46.8h-7.06V74.63Z"/><path id="Shape-2" data-name="Shape" class="cls-2" d="M158.21,50.43c0-5.34-.1-8.77-.29-11.92h9.52l.47,6.67h.28c1.79-5.33,6.12-7.53,9.61-7.53a17.75,17.75,0,0,1,2.35.19V48.42a13.57,13.57,0,0,0-3-.28c-4,0-6.88,2.19-7.63,5.72a10.45,10.45,0,0,0-.19,2.47v18.3H158.21Z"/><path id="Shape-3" data-name="Shape" class="cls-2" d="M191.45,60.24c.29,4.67,4.9,6.86,10.08,6.86a29.14,29.14,0,0,0,9.89-1.52l1.51,7.62A33.87,33.87,0,0,1,200,75.49c-12.15,0-19-7-19-18.39,0-9.15,5.65-19.26,18.08-19.26,11.59,0,15.92,9.06,15.92,18a23.66,23.66,0,0,1-.38,4.48Zm13.09-7.72c0-2.76-1.13-7.34-6.31-7.34-4.71,0-6.59,4.39-6.87,7.34Z"/><path id="Shape-4" data-name="Shape" class="cls-2" d="M227.62,60.24c.28,4.67,4.89,6.86,10.07,6.86a29.1,29.1,0,0,0,9.89-1.52l1.51,7.62a33.82,33.82,0,0,1-12.9,2.29c-12.15,0-19-7-19-18.39,0-9.15,5.65-19.26,18.09-19.26,11.58,0,15.91,9.06,15.91,18a24.73,24.73,0,0,1-.37,4.48Zm13-7.72c0-2.76-1.13-7.34-6.31-7.34-4.7,0-6.59,4.39-6.87,7.34Z"/><path id="Shape-5" data-name="Shape" class="cls-3" d="M283.09,66.06a58.16,58.16,0,0,0,.56,8.67h-8.1l-.65-4h-.19a13,13,0,0,1-10.55,4.76C257,75.49,253,70.25,253,64.82c0-9.06,8-13.63,21.1-13.63v-.57c0-2.39-.94-6.29-7.25-6.29A19.31,19.31,0,0,0,257.19,47l-1.79-5.9a25.61,25.61,0,0,1,12.9-3.15c11.4,0,14.7,7.34,14.7,15.25Zm-8.76-9C268,57,261.9,58.34,261.9,63.86c0,3.53,2.26,5.15,5.08,5.15a7.33,7.33,0,0,0,7.07-5,7.22,7.22,0,0,0,.19-2V57.1Z"/><path id="Shape-6" data-name="Shape" class="cls-3" d="M321,69.49c0,7.53-1.41,13-5.18,16.3s-8.85,4.38-13.75,4.38c-4.52,0-9.32-1-12.43-2.86l2-6.86A21.14,21.14,0,0,0,302,83.21c5.84,0,10.26-3.14,10.26-10.86V69.2h-.18a12,12,0,0,1-10.36,5.34c-8.86,0-15.17-7.44-15.17-17.63,0-11.82,7.63-19,16.11-19,5.46,0,8.66,2.67,10.26,5.62h.19l.38-4.76h7.82c-.19,2.48-.29,5.43-.29,10.39Zm-8.85-16.4a10.39,10.39,0,0,0-.28-2.47,7.44,7.44,0,0,0-7.35-5.82c-5.08,0-8.76,4.48-8.76,11.73,0,6.1,3.11,11,8.67,11a7.65,7.65,0,0,0,7.34-5.53,10.73,10.73,0,0,0,.38-3.14Z"/><path id="Shape-7" data-name="Shape" class="cls-3" d="M333.48,59.29c.18,6.48,5.18,9.34,10.92,9.34A29.14,29.14,0,0,0,354.29,67l1.32,6.19a31.79,31.79,0,0,1-12.43,2.29c-11.59,0-18.37-7.15-18.37-18.2,0-10,6-19.35,17.42-19.35,11.59,0,15.36,9.63,15.36,17.54a27.4,27.4,0,0,1-.29,3.81ZM349,52.9c.1-3.33-1.41-8.76-7.34-8.76-5.56,0-7.91,5.14-8.29,8.76Z"/><path id="Shape-8" data-name="Shape" class="cls-3" d="M361.16,49.47c0-4.1-.28-7.62-.37-10.67h7.81l.48,5.43h.18A13.1,13.1,0,0,1,380.66,38c6.22,0,12.62,4.09,12.62,15.44V74.83h-8.95V54.33c0-5.14-1.88-9-6.78-9a7.46,7.46,0,0,0-7,5.34,8.69,8.69,0,0,0-.47,2.86V74.73h-8.95Z"/><path id="Shape-9" data-name="Shape" class="cls-3" d="M409.1,29.46V38.7h8.57v6.77H409.1V61.39c0,4.48,1.13,6.67,4.62,6.67a12,12,0,0,0,3.48-.38l.19,6.86a20.84,20.84,0,0,1-6.5.95,10.27,10.27,0,0,1-7.72-2.95c-2-2.1-2.83-5.44-2.83-10.11v-17h-5.08V38.7h5.08V31.94Z"/></g><g id="Group-2" data-name="Group"><path id="Shape-10" data-name="Shape" class="cls-2" d="M437.36,70.63c-3.11-3.33-4.71-7.81-4.71-13.25s1.6-9.91,4.71-13.24a15.84,15.84,0,0,1,12.14-5.06c8.2,0,13.38,3.72,15.64,11.16h-4.8a10.18,10.18,0,0,0-3.87-5.53,11.56,11.56,0,0,0-7-2,11.12,11.12,0,0,0-8.85,3.81q-3.39,3.85-3.39,10.86c0,4.67,1.13,8.39,3.39,11a11.12,11.12,0,0,0,8.85,3.82,11.76,11.76,0,0,0,7-2,10.2,10.2,0,0,0,3.87-5.52h4.8a17.15,17.15,0,0,1-5.56,8.1,17.43,17.43,0,0,1-22.22-2.1Z"/><path id="Shape-11" data-name="Shape" class="cls-2" d="M474.93,39.66v5.81c1.89-4.29,5.56-6.48,10.83-6.48v4.76h-1.31q-4.67,0-7.07,2.58c-1.6,1.71-2.45,4.57-2.45,8.67V75.11h-4.52V39.66Z"/><path id="Shape-12" data-name="Shape" class="cls-2" d="M494.71,39.66v5.81c2.36-4.29,6.22-6.39,11.58-6.39a14,14,0,0,1,7.44,2,12.05,12.05,0,0,1,4.9,5.9,13.56,13.56,0,0,1,5.18-5.81,14,14,0,0,1,7.72-2.1,13.12,13.12,0,0,1,9.71,3.82c2.63,2.57,3.86,6.29,3.86,11.15V75.11h-4.43V54.91q0-5.86-2.83-8.87a11.06,11.06,0,0,0-15.25,0q-2.83,3-2.83,8.87v20.2h-4.42V54.91c0-3.91-1-6.87-2.83-8.87a11.07,11.07,0,0,0-15.26,0q-2.82,3-2.82,8.87v20.2h-4.52V39.66Z"/></g></g></g></g></g><g id="Logo_Vertical_Dark" data-name="Logo Vertical Dark"><path class="cls-4" d="M96.17,13.4l-.78-.76-46,35.57L31.2,62.13h0L19.43,57C0,47.79,0,48.47,0,48.47L21.62,63.52s.65,1.49,1,2.22a45.85,45.85,0,0,0,8.82,12.38,44,44,0,0,0,4.54,4A45.77,45.77,0,0,0,96.17,13.4Z"/><path class="cls-5" d="M95.38,12.64h0L43.31,65.74,36,82.1l-4.79-20-13-20.51a45.76,45.76,0,0,1,77.15-29Z"/><polygon class="cls-6" points="95.39 12.64 43.31 65.74 35.99 82.1 31.2 62.13 95.39 12.64 95.39 12.64"/><path class="cls-3" d="M95.39,12.64,89.46,79.92,43.31,65.74l52.08-53.1Z"/><polygon class="cls-3" points="95.38 12.64 18.23 41.62 0 48.47 19.43 56.98 31.2 62.13 95.39 12.64 95.38 12.64"/><polygon class="cls-7" points="53.25 68.8 35.99 82.1 43.31 65.74 53.25 68.8"/></g></g></g></svg>